<?xml version="1.0" encoding="UTF-8"?>
<svg id="a" data-name="Capa 1" xmlns="http://www.w3.org/2000/svg" viewBox="0 0 455.5 409.38">
  <defs>
    <style>
      .c {
        fill: #094434;
      }

      .d {
        fill: #3d7f6a;
      }

      .e {
        fill: #b5cac3;
      }

      .f {
        fill: #8b9f98;
      }

      .g {
        fill: #819a92;
      }

      .h {
        fill: #0b4334;
      }

      .i {
        fill: #094233;
      }

      .j {
        fill: #094333;
      }

      .k {
        fill: #094132;
      }

      .l {
        fill: #3e7e6a;
      }

      .m {
        fill: #a7c5bb;
      }

      .n {
        fill: #42806c;
      }

      .o {
        fill: #89aba0;
      }

      .p {
        fill: #cfdfd9;
      }

      .q {
        fill: #c0d0cb;
      }

      .r {
        fill: #3e7f6a;
      }

      .s {
        fill: #95a89e;
      }

      .t {
        fill: #a6b7b1;
      }

      .u {
        fill: #8aa59f;
      }

      .v {
        fill: #b7c7c2;
      }
    </style>
  </defs>
  <g>
    <path class="d" d="M325.51,186.22l-5.18,20.57c-.13.52-.26.97-.5,1.14-.36.26-1.31.33-1.64.12-1.22-.76,1.93-6.94-1.3-9.64-1.97-1.64-5.14-1.09-7.55-.85l-6.36,25.29c-.24.94.04,2.25.59,2.82,1.39,1.42,5.69.06,5.76,1.93.03.83-1.4,1.14-2.08,1.13l-18.07-.06c-.33-.56-.27-1.46.03-1.78.75-.81,5.76.38,6.71-3.35l13.38-52.86c.31-1.21.35-2.24-.26-3.07-1.51-2.04-6.87-.05-4.36-3.37l32.8-.04c.32,1.88-.15,3.5-.52,5.28l-2.54,12.28c-.16.78-.73,1.31-1.3,1.3-.77-.01-1.24-.55-1.2-1.35l.27-4.61-.46-4.23c-.23-2.13-1.33-4.53-3.59-5.49-2.98-1.26-7.72-1.71-10.46.04-1.77,2.46-1.99,5.87-2.72,8.69l-4.72,18.33c4.46.7,8.99.36,10.62-3.29l2.87-6.43,1.44.11c.3.02.47.86.34,1.37Z"/>
    <path class="r" d="M348.39,214.9c.03-1.61.13-3.11,1.1-4.51-.4,1.24-.93,2.14-1.59,2.7-3.71,6.54-11.47,17.92-18.49,14.04-7.49-4.14-3.26-18.52,1.11-26.65l3.74-5.84c4.25-6.64,16.31-14.75,21.57-7.55l3.21-2.28c.85-.6,2.17-.48,3.21-.39.3,1.53-.21,2.77-.61,4.26l-8.18,30.6c-.29,1.07-.12,3.2,1.06,3.37,3.36.47,6.72-6.65,8.22-10.98.17-.49.97-.7,1.26-.86s1.25.4,1.13.87c-1.17,4.34-3.32,8.14-5.9,11.81-2.02,2.86-5.14,5.03-8.91,4.11-2.06-.51-3.14-2.79-3.28-4.86-.19-2.7.77-5.39,1.37-7.84ZM346.52,210.89l4.06-7.78c2.47-4.74,5.11-13.57,1.92-15.83-7.17-5.08-20.08,17.44-20.6,32-.05,1.46,1.03,2.84,1.99,3.38,3.47,1.97,10.06-6.82,12.64-11.77Z"/>
    <path class="l" d="M410.16,219.31c-1.33,3.36-3.61,5.99-6.75,7.62-2.68,1.4-6.33,1.3-7.93-1.35-1.7-2.81-1.05-6.13-.26-9.15l6.58-25.03c.35-1.32,1-2.42.55-3.87l-5.42-.05c-.22-.54-.27-2.05.24-2.37l6.4-.44,3.1-11.47c2.12-.72,4.17-1.32,6.58-1.36l-3.38,12.8,7.82.24c.38.59.27,2.46-.42,2.48l-8.17.19-8.39,32.3c-.29,1.13.54,2.33,1.36,2.75s2.15,0,3.03-.79c5.89-5.31,5.29-13.16,8.05-10.11l-3.01,7.62Z"/>
    <path class="n" d="M384.36,224.1c-5.82,6.15-17.83,3.4-20.37.27-.93-1.15.01-3.19.26-4.47l1.49-7.59c.15-.75.48-1.06.98-1.1,1.25-.1,1.06.35,1.2,1.37l.87,6.71c.3,2.33,1.59,3.93,3.56,5.17,2.2,1.38,4.67,1.54,7.06.31,1.91-.98,3.06-3.44,3.02-5.92-.05-3.64-1.85-6.74-4.11-9.55l-2.86-3.56c-2.02-2.51-3.89-5.32-4.54-8.58-1.3-6.54,4.08-12.54,10.88-12.83,4.26-.18,8.1.63,11.18,3.33l-2.7,11.46c-.16.68-.69.95-1.16.96-2.49.03.26-5.55-2.58-10.75-1.13-2.08-3.09-2.96-5.36-2.78-1.89.15-4.24.98-4.75,3.33-1.18,5.45,1.52,7.89,4.38,11.63l4.94,6.45c3.28,5.16,3.03,11.44-1.41,16.14Z"/>
    <path class="m" d="M348.39,214.9c.03-.67.05-1.5-.49-1.81.48-.84.56-1.89,1.59-2.7l-1.1,4.51Z"/>
  </g>
  <g>
    <g>
      <path class="i" d="M96.58,186.65c-.15,7.83-.11,15.62.12,23.38.02,4.64,2.79,8.58,7.72,8.66l8.68.14c5.93.1,9.51-4.01,9.55-10.04l.11-16.8c.02-2.32-.7-6.04.36-6.06l8.67-.19-.3,27.12c-.6,7.92-7.26,13.69-15.28,14.31l-13.68-.04c-7.94-.66-14.85-5.95-14.94-13.84l-.28-27.55,8.06-.07c.31,0,.75.18.77.34s-.02.57.42.63Z"/>
      <path class="t" d="M96.7,210.03c-.16-.1-.44-.29-.44-.62l.32-22.77.12,23.38Z"/>
    </g>
    <g>
      <path class="c" d="M270.86,202.12c.35,2.76.37,5.76-.02,8.52-.02,9.43-7.9,16.58-16.49,16.54l-13.65-.05c-8.39-.03-16.04-7.81-15.96-14.97l.14-12.81c.71-5.65,4.44-10.71,10.09-12.6,7.82-2.62,16.19-2.54,24.11-.52,7.26,1.86,11.81,8.67,11.79,15.9ZM261.35,211.17l.04-9.3c.02-5.47-5.6-9-11.11-7.95-2.42-1.05-4.65-.44-7.08-.3-4.52.26-8.38,2.84-9.13,7.48l-.15,8.35c-.09,4.79,3.14,9.16,8.18,9.2l10.48.08c4.18.03,8.75-3.64,8.76-7.57Z"/>
      <path class="p" d="M270.84,210.64l.02-8.52c.27.21.46.54.46,1.03v6.78c0,.49-.18.82-.47.71Z"/>
    </g>
    <g>
      <path class="j" d="M165.85,193.74c-2.78-.26-5.61-.31-8.48-.15-3.48.12-6.83,1.91-7.84,5.65l-.95,3.52-.05,24.12-9.12-.24c-.11-5.45-.07-10.88.11-16.29-.04-3.02-.29-5.71-.06-9.01.43-6.3,3.69-12.72,10.39-14.81,7.47-2.33,15.71-2.41,23.18-.14,6.62,2.01,10.77,7.66,10.81,14.25l.17,26.13-9.24.11-.28-25.23c-.05-4.68-4.31-7.94-8.62-7.92Z"/>
      <path class="g" d="M139.39,226.65l-.22-15.82c0-.32.33-.52.34-.47l-.11,16.29Z"/>
      <path class="v" d="M165.85,193.74l-8.48-.15,7.54-.27c.49-.02.83.13.94.42Z"/>
    </g>
    <g>
      <path class="k" d="M204.54,175.87v.9c.15,2.98.3,5.97.47,8.95l14.79.1-.03,7.88-14.64.09c-.39,6.34-.5,12.75-.33,19.23.05,3.09,2.82,4.83,5.79,5.53l8.36.18c.23.06.98.17.97.58l-.12,7.52h-11.02c-6.73,0-12.89-4.95-12.95-11.61l-.19-19.63c0-.58-.18-1.74-.9-1.75l-6.96-.08-.13-4.94c-.02-.76-.53-2.92.54-2.96l7.35-.3.11-8.84c-.03-.42.08-.84.47-.84,2.71-.39,5.71-.37,8.42,0Z"/>
      <path class="e" d="M204.8,213.01l-.33-18.76c0-.43.43-.46.65-.46l-.33,19.23Z"/>
      <path class="q" d="M205.01,185.71c-.16,0-.47-.04-.47-.44v-8.52c.2-.03.46.16.46.47v8.49Z"/>
      <path class="s" d="M204.54,175.87h-8.42c.07-.3.42-.47.92-.47h6.6c.5,0,.85.17.9.47Z"/>
      <path class="f" d="M218.95,218.71c-2.77.02-5.63.47-8.36-.18,2.61.02,5.89-.5,8.36.18Z"/>
    </g>
    <g>
      <path class="h" d="M29.87,222.13c-.26-6.69-.33-13.64.08-20.3l-.18-9.25c-.03-1.63,0-2.73.02-4.31l.21-16.04,35.74.21c3.98.02,7.62,1.9,10.49,4.29,4.75,3.95,5.81,11.98,4.57,18.25-1.58,7.96-8.12,12.93-16.53,12.98l-24.97.14v18.79s-8.88.05-8.88.05c-1.49-1.47-.56-3.18-.56-4.82ZM50.52,199.63l13.54-.35c2.1-.05,4.12-1.08,5.53-3.01,2.81-3.82,2.86-9.82-.83-13.27-1.52-1.42-4.47-2.13-6.55-2.13l-22.92-.1.09,18.72,11.14.14Z"/>
      <path class="u" d="M29.87,222.13c-.07-.11-.35-.3-.35-.62v-19.19c0-.32.29-.51.44-.48l-.08,20.3Z"/>
      <path class="o" d="M64.06,199.28l-13.54.35c-.03-.21.16-.47.49-.47l13.05.13Z"/>
    </g>
  </g>
</svg>