<?xml version="1.0" encoding="UTF-8"?>
<svg id="a" data-name="Capa 1" xmlns="http://www.w3.org/2000/svg" xmlns:xlink="http://www.w3.org/1999/xlink" viewBox="0 0 455.5 409.38">
  <defs>
    <style>
      .e {
        fill: url(#c);
      }

      .f {
        fill: url(#b);
      }

      .g {
        fill: #09523c;
      }

      .h {
        fill: #b7dbca;
      }

      .i {
        fill: #33a980;
      }

      .j {
        fill: #59ae91;
      }

      .k {
        fill: #66b69a;
      }

      .l {
        fill: #6fbaa0;
      }

      .m {
        fill: #7dc1a7;
      }

      .n {
        fill: #8cc7b1;
      }

      .o {
        fill: #62b398;
      }

      .p {
        fill: #e3efe9;
      }
    </style>
    <linearGradient id="b" data-name="Degradado sin nombre 20" x1="1417.04" y1="-66.9" x2="1527.57" y2="-35.14" gradientTransform="translate(-545.7 254.74) scale(.47)" gradientUnits="userSpaceOnUse">
      <stop offset="0" stop-color="#83c6ac"/>
      <stop offset="1" stop-color="#59b296"/>
    </linearGradient>
    <linearGradient id="c" data-name="Degradado sin nombre 18" x1="1331.32" y1="-131.49" x2="1679.08" y2="-118.68" gradientTransform="translate(-545.7 254.74) scale(.47)" gradientUnits="userSpaceOnUse">
      <stop offset="0" stop-color="#bedfd0"/>
      <stop offset=".49" stop-color="#79c0a7"/>
      <stop offset="1" stop-color="#46ab8e"/>
    </linearGradient>
  </defs>
  <g>
    <path class="f" d="M137.72,223.55c9.57.26,19.18.33,28.84.21,2.65.02,7.44,5.3,4.68,11.21-.85,1.82-3.04,4.18-5.75,4.19l-45.76-.28c-1.17-.06-2.31-.32-3.42-.77-3.74-1.93-4.92-6.32-3.23-10.11,1.08-2.41,3.02-4.36,5.92-4.37l18.72-.08Z"/>
    <circle class="i" cx="225.61" cy="314.45" r="10.31"/>
    <path class="m" d="M165.48,239.15l-45.9.18c-1.32,0-2.43-.79-3.28-1.23l2.57.3,18.88.26,27.73.5Z"/>
    <path class="k" d="M166.55,223.75l-28.1.23c-.52,0-.82-.19-.74-.43l28.84.21Z"/>
    <g>
      <path class="o" d="M166.13,166.77h-30.74c-4.41,0-6.1-4.96-5.84-8.66.24-3.48,2.96-6.73,6.88-6.74l28-.07c4.11-.01,6.94,3.26,7.57,6.78.59,3.3-1.7,8.69-5.87,8.69Z"/>
      <g>
        <path class="e" d="M80.56,189.41c14.52-.3,29.89-.33,44.32.25,22.39-.38,44.81-.45,67.26-.22,11.83-.42,24.88-.42,36.87-.02,6.75-.34,13.64-.38,20.69-.11l-.13.57c-11.47,2.11-21.95,7.35-30.39,15.33.01-.13-.23-.39-.43-.39-.4-.15-.39-.3.02-.47l-1-.26c-10.61.13-21.16.06-31.64-.21-10.24.41-21.45.4-31.79,0-8.49.15-17.04.31-25.67.46-3.53.38-7.57.38-11.2-.01l-7.48.04-.56-.25-29.65-.14c-3.63-.05-5.43-4.36-5.37-7.57.07-3.5,2.73-7.04,6.15-7.02Z"/>
        <path class="p" d="M128.66,204.36c8.41-.4,17.32-.39,25.67,0,10.23-.4,21.41-.4,31.74,0,10.36-.29,20.85-.38,31.46-.26.8-.47,1.21-.38,1.23.26l-.02.47h-100.71c-.45,0-.58-.3-.57-.48h11.2Z"/>
        <path class="n" d="M192.14,188.97c.41.13.4.29,0,.47l-47.26.25-20-.03c5.6-.39,11.39-.56,17.37-.49l49.89-.2Z"/>
        <path class="h" d="M142.24,189.17l-17.37.49-44.32-.25c.01-.16.17-.45.57-.45l61.11.22Z"/>
        <path class="l" d="M229.01,188.96c.41.13.4.29,0,.47l-36.87.02v-.47s36.87-.01,36.87-.01Z"/>
        <path class="h" d="M109.98,204.38l-30.21-.39,29.7-.1c.35,0,.54.29.5.49Z"/>
        <path class="j" d="M255.15,188.95c-.39.65-2.45.35-5.58.93-.08-.29-.42-.47-.94-.47h-19.62s0-.45,0-.45h26.14Z"/>
        <path class="j" d="M218.76,204.36h-32.69c-.39-.17-.37-.33.05-.47l31.53-.06c.54-.36,1.39-1.75,2.14-.92-.36.48-1.01,1.02-1.02,1.45Z"/>
        <path class="j" d="M243.36,189.9c.15.23-.24.66-.35.77-.16.16-.63-.28-1.04-.28l-31.88-.04c-.14,0-.31-.26-.26-.42l33.52-.04Z"/>
        <path class="l" d="M186.11,203.89l-.05.47h-31.74c-.41-.13-.4-.28,0-.47h31.79Z"/>
        <path class="n" d="M154.33,203.89v.47s-25.67,0-25.67,0c-.03-.18.16-.46.51-.46h25.16Z"/>
      </g>
    </g>
  </g>
  <path class="g" d="M185.49,319.05c-5.3,4.17-12.51,4.15-17.76.8-5.42-3.46-6.05-9.31-3.32-14.67l43.07-84.64c3.29-6.46,7.94-11.52,12.99-16.52,7.76-7.68,17.71-12.15,28.33-14.57,1.96-.45,3.9-.88,5.93-.88h21.94c6.77-.01,12.92-2.48,17.15-7.83,3.18-4.03,4.96-8.56,5.3-13.9.73-11.41-7.74-22.12-19.76-22.16l-80.57-.23c-1.78,0-3.88-.8-4.97-2.08l-26.36-30.94c-2.23-2.61-1.9-7.1-.52-9.93,1.28-2.63,4.33-5.3,8.06-5.3h103.5c14.35,0,27.7,4.66,39.27,12.78,27.42,19.24,34.98,54.41,22.75,84.83-5.04,12.54-12.77,23.39-23.49,31.6s-22.77,12.89-36.18,12.99l-34.15.24c-9.36.07-16.96,6.84-20.19,15.41l31.05.1c1.35,0,2.66,1.71,2.85,2.7.24,1.28-.14,3.14-1.31,4.07l-56.23,44.45-17.37,13.66Z"/>
</svg>