<?xml version="1.0" encoding="UTF-8"?>
<svg id="a" data-name="Capa 1" xmlns="http://www.w3.org/2000/svg" xmlns:xlink="http://www.w3.org/1999/xlink" viewBox="0 0 455.5 409.38">
  <defs>
    <style>
      .e {
        fill: url(#c);
      }

      .f {
        fill: url(#b);
      }

      .g {
        fill: #6c6c6c;
      }

      .h {
        fill: #727272;
      }

      .i {
        fill: #454545;
      }

      .j {
        fill: #363636;
      }

      .k {
        fill: #3b3b3b;
      }

      .l {
        fill: #3a3a3a;
      }

      .m {
        fill: #525252;
      }

      .n {
        fill: #9b9b9b;
      }

      .o {
        fill: #4e4e4e;
      }

      .p {
        fill: #fff;
      }

      .q {
        fill: #101010;
      }

      .r {
        fill: #414141;
      }

      .s {
        fill: #1f1f1f;
      }

      .t {
        fill: #5e5e5e;
      }

      .u {
        fill: #222;
      }

      .v {
        fill: #585858;
      }

      .w {
        fill: #9e9e9e;
      }

      .x {
        fill: #2f2f2f;
      }

      .y {
        fill: #484848;
      }

      .z {
        fill: #9c9c9c;
      }

      .aa {
        fill: #616161;
      }

      .ab {
        fill: #343434;
      }
    </style>
    <linearGradient id="b" data-name="Degradado sin nombre 32" x1="834.65" y1="-173.24" x2="945.17" y2="-141.48" gradientTransform="translate(-270.8 254.74) scale(.47)" gradientUnits="userSpaceOnUse">
      <stop offset="0" stop-color="#363636"/>
      <stop offset="1" stop-color="#4f4f4f"/>
    </linearGradient>
    <linearGradient id="c" data-name="Degradado sin nombre 31" x1="748.93" y1="-237.83" x2="1096.69" y2="-225.01" gradientTransform="translate(-270.8 254.74) scale(.47)" gradientUnits="userSpaceOnUse">
      <stop offset="0" stop-color="#202020"/>
      <stop offset=".49" stop-color="#3d3d3d"/>
      <stop offset="1" stop-color="#595959"/>
    </linearGradient>
  </defs>
  <rect x="-.39" y="-.6" width="457.4" height="411.49"/>
  <g>
    <g>
      <path class="f" d="M140.79,173.91c9.57.26,19.18.33,28.84.21,2.65.02,7.44,5.3,4.68,11.21-.85,1.82-3.04,4.18-5.75,4.19l-45.76-.28c-1.17-.06-2.31-.32-3.42-.77-3.74-1.93-4.92-6.32-3.23-10.11,1.08-2.41,3.02-4.36,5.92-4.37l18.72-.08Z"/>
      <circle class="m" cx="228.68" cy="264.82" r="10.31"/>
      <path class="k" d="M168.55,189.52l-45.9.18c-1.32,0-2.43-.79-3.28-1.23l2.57.3,18.88.26,27.73.5Z"/>
      <path class="i" d="M169.62,174.12l-28.1.23c-.52,0-.82-.19-.74-.43l28.84.21Z"/>
      <g>
        <path class="y" d="M169.2,117.14h-30.74c-4.41,0-6.1-4.96-5.84-8.66.24-3.48,2.96-6.73,6.88-6.74l28-.07c4.11-.01,6.94,3.26,7.57,6.78.59,3.3-1.7,8.69-5.87,8.69Z"/>
        <g>
          <path class="e" d="M83.63,139.78c14.52-.3,29.89-.33,44.32.25,22.39-.38,44.81-.45,67.26-.22,11.83-.42,24.88-.42,36.87-.02,6.75-.34,13.64-.38,20.69-.11l-.13.57c-11.47,2.11-21.95,7.35-30.39,15.33.01-.13-.23-.39-.43-.39-.4-.15-.39-.3.02-.47l-1-.26c-10.61.13-21.16.06-31.64-.21-10.24.41-21.45.4-31.79,0-8.49.15-17.04.31-25.67.46-3.53.38-7.57.38-11.2-.01l-7.48.04-.56-.25-29.65-.14c-3.63-.05-5.43-4.36-5.37-7.57.07-3.5,2.73-7.04,6.15-7.02Z"/>
          <path class="q" d="M131.73,154.73c8.41-.4,17.32-.39,25.67,0,10.23-.4,21.41-.4,31.74,0,10.36-.29,20.85-.38,31.46-.26.8-.47,1.21-.38,1.23.26l-.02.47h-100.71c-.45,0-.58-.3-.57-.48h11.2Z"/>
          <path class="ab" d="M195.21,139.34c.41.13.4.29,0,.47l-47.26.25-20-.03c5.6-.39,11.39-.56,17.37-.49l49.89-.2Z"/>
          <path class="u" d="M145.31,139.54l-17.37.49-44.32-.25c.01-.16.17-.45.57-.45l61.11.22Z"/>
          <path class="r" d="M232.08,139.33c.41.13.4.29,0,.47l-36.87.02v-.47s36.87-.01,36.87-.01Z"/>
          <path class="u" d="M113.05,154.75l-30.21-.39,29.7-.1c.35,0,.54.29.5.49Z"/>
          <path class="o" d="M258.22,139.32c-.39.65-2.45.35-5.58.93-.08-.29-.42-.47-.94-.47h-19.62s0-.45,0-.45h26.14Z"/>
          <path class="o" d="M221.83,154.73h-32.69c-.39-.17-.37-.33.05-.47l31.53-.06c.54-.36,1.39-1.75,2.14-.92-.36.48-1.01,1.02-1.02,1.45Z"/>
          <path class="o" d="M246.43,140.26c.15.23-.24.66-.35.77-.16.16-.63-.28-1.04-.28l-31.88-.04c-.14,0-.31-.26-.26-.42l33.52-.04Z"/>
          <path class="r" d="M189.18,154.26l-.05.47h-31.74c-.41-.13-.4-.28,0-.47h31.79Z"/>
          <path class="ab" d="M157.4,154.26v.47s-25.67,0-25.67,0c-.03-.18.16-.46.51-.46h25.16Z"/>
        </g>
      </g>
      <g>
        <g>
          <path class="z" d="M325.51,314.88l-5.18,21.44c-.13.54-.26,1.01-.5,1.19-.36.27-1.31.34-1.64.13-1.22-.79,1.93-7.24-1.3-10.05-1.97-1.71-5.14-1.14-7.55-.88l-6.36,26.36c-.24.98.04,2.35.59,2.94,1.39,1.48,5.69.07,5.76,2.02.03.87-1.4,1.18-2.08,1.18l-18.07-.06c-.33-.59-.27-1.52.03-1.86.75-.85,5.76.4,6.71-3.49l13.38-55.1c.31-1.26.35-2.34-.26-3.2-1.51-2.13-6.87-.05-4.36-3.51l32.8-.05c.32,1.96-.15,3.65-.52,5.5l-2.54,12.8c-.16.82-.73,1.37-1.3,1.36-.77-.01-1.24-.57-1.2-1.41l.27-4.8-.46-4.41c-.23-2.23-1.33-4.73-3.59-5.72-2.98-1.32-7.72-1.78-10.46.05-1.77,2.57-1.99,6.12-2.72,9.05l-4.72,19.1c4.46.73,8.99.38,10.62-3.42l2.87-6.7,1.44.12c.3.02.47.9.34,1.43Z"/>
          <path class="z" d="M348.39,344.78c.03-1.67.13-3.24,1.1-4.7-.4,1.29-.93,2.23-1.59,2.81-3.71,6.82-11.47,18.68-18.49,14.64-7.49-4.31-3.26-19.3,1.11-27.78l3.74-6.09c4.25-6.92,16.31-15.37,21.57-7.87l3.21-2.37c.85-.63,2.17-.5,3.21-.4.3,1.59-.21,2.89-.61,4.44l-8.18,31.89c-.29,1.12-.12,3.33,1.06,3.51,3.36.49,6.72-6.94,8.22-11.45.17-.51.97-.73,1.26-.9s1.25.42,1.13.91c-1.17,4.53-3.32,8.48-5.9,12.31-2.02,2.98-5.14,5.25-8.91,4.28-2.06-.53-3.14-2.91-3.28-5.07-.19-2.81.77-5.62,1.37-8.17ZM346.52,340.6l4.06-8.11c2.47-4.94,5.11-14.15,1.92-16.5-7.17-5.29-20.08,18.17-20.6,33.35-.05,1.52,1.03,2.96,1.99,3.52,3.47,2.05,10.06-7.11,12.64-12.26Z"/>
          <path class="w" d="M410.16,349.37c-1.33,3.5-3.61,6.25-6.75,7.94-2.68,1.45-6.33,1.35-7.93-1.41-1.7-2.93-1.05-6.38-.26-9.54l6.58-26.09c.35-1.38,1-2.52.55-4.04l-5.42-.05c-.22-.56-.27-2.14.24-2.47l6.4-.45,3.1-11.96c2.12-.75,4.17-1.37,6.58-1.41l-3.38,13.34,7.82.25c.38.61.27,2.56-.42,2.58l-8.17.2-8.39,33.66c-.29,1.18.54,2.42,1.36,2.86s2.15,0,3.03-.83c5.89-5.53,5.29-13.72,8.05-10.54l-3.01,7.95Z"/>
          <path class="n" d="M384.36,354.36c-5.82,6.41-17.83,3.54-20.37.28-.93-1.19.01-3.32.26-4.66l1.49-7.92c.15-.78.48-1.1.98-1.14,1.25-.11,1.06.37,1.2,1.43l.87,7c.3,2.43,1.59,4.1,3.56,5.39,2.2,1.44,4.67,1.6,7.06.32,1.91-1.02,3.06-3.59,3.02-6.17-.05-3.79-1.85-7.03-4.11-9.95l-2.86-3.71c-2.02-2.62-3.89-5.55-4.54-8.94-1.3-6.82,4.08-13.08,10.88-13.37,4.26-.18,8.1.65,11.18,3.47l-2.7,11.94c-.16.71-.69.99-1.16,1-2.49.03.26-5.78-2.58-11.21-1.13-2.16-3.09-3.09-5.36-2.9-1.89.16-4.24,1.02-4.75,3.47-1.18,5.69,1.52,8.22,4.38,12.12l4.94,6.73c3.28,5.38,3.03,11.92-1.41,16.82Z"/>
          <path class="l" d="M348.39,344.78c.03-.7.05-1.57-.49-1.89.48-.88.56-1.97,1.59-2.81l-1.1,4.7Z"/>
        </g>
        <g>
          <g>
            <path class="p" d="M96.58,315.33c-.15,8.16-.11,16.28.12,24.37.02,4.84,2.79,8.94,7.72,9.03l8.68.15c5.93.1,9.51-4.18,9.55-10.46l.11-17.51c.02-2.42-.7-6.29.36-6.32l8.67-.2-.3,28.27c-.6,8.26-7.26,14.27-15.28,14.91l-13.68-.04c-7.94-.68-14.85-6.21-14.94-14.43l-.28-28.72,8.06-.07c.31,0,.75.19.77.35s-.02.59.42.66Z"/>
            <path class="o" d="M96.7,339.7c-.16-.11-.44-.3-.44-.64l.32-23.73.12,24.37Z"/>
          </g>
          <g>
            <path class="p" d="M270.86,331.45c.35,2.87.37,6-.02,8.88-.02,9.83-7.9,17.28-16.49,17.24l-13.65-.06c-8.39-.03-16.04-8.14-15.96-15.6l.14-13.36c.71-5.89,4.44-11.17,10.09-13.14,7.82-2.73,16.19-2.65,24.11-.54,7.26,1.94,11.81,9.04,11.79,16.57ZM261.35,340.89l.04-9.69c.02-5.7-5.6-9.38-11.11-8.28-2.42-1.1-4.65-.46-7.08-.31-4.52.28-8.38,2.96-9.13,7.8l-.15,8.71c-.09,4.99,3.14,9.55,8.18,9.59l10.48.08c4.18.03,8.75-3.79,8.76-7.89Z"/>
            <path class="s" d="M270.84,340.33l.02-8.88c.27.22.46.56.46,1.07v7.07c0,.51-.18.85-.47.74Z"/>
          </g>
          <g>
            <path class="p" d="M165.85,322.72c-2.78-.27-5.61-.32-8.48-.16-3.48.13-6.83,1.99-7.84,5.89l-.95,3.67-.05,25.15-9.12-.25c-.11-5.68-.07-11.34.11-16.98-.04-3.15-.29-5.95-.06-9.39.43-6.56,3.69-13.26,10.39-15.44,7.47-2.43,15.71-2.51,23.18-.15,6.62,2.09,10.77,7.98,10.81,14.86l.17,27.24-9.24.12-.28-26.3c-.05-4.88-4.31-8.28-8.62-8.25Z"/>
            <path class="h" d="M139.39,357.02l-.22-16.49c0-.33.33-.54.34-.49l-.11,16.98Z"/>
            <path class="l" d="M165.85,322.72l-8.48-.16,7.54-.28c.49-.02.83.14.94.44Z"/>
          </g>
          <g>
            <path class="p" d="M204.54,304.09v.93c.15,3.11.3,6.22.47,9.33l14.79.11-.03,8.21-14.64.09c-.39,6.61-.5,13.29-.33,20.04.05,3.22,2.82,5.03,5.79,5.76l8.36.18c.23.06.98.18.97.61l-.12,7.84h-11.02c-6.73,0-12.89-5.16-12.95-12.1l-.19-20.46c0-.61-.18-1.82-.9-1.82l-6.96-.09-.13-5.15c-.02-.79-.53-3.04.54-3.09l7.35-.31.11-9.22c-.03-.44.08-.88.47-.88,2.71-.41,5.71-.39,8.42,0Z"/>
            <path class="j" d="M204.8,342.8l-.33-19.56c0-.44.43-.48.65-.48l-.33,20.04Z"/>
            <path class="x" d="M205.01,314.35c-.16,0-.47-.04-.47-.45v-8.88c.2-.03.46.16.46.49v8.84Z"/>
            <path class="t" d="M204.54,304.09h-8.42c.07-.31.42-.49.92-.49h6.6c.5,0,.85.18.9.49Z"/>
            <path class="g" d="M218.95,348.74c-2.77.02-5.63.49-8.36-.18,2.61.02,5.89-.52,8.36.18Z"/>
          </g>
          <g>
            <path class="p" d="M29.87,352.31c-.26-6.97-.33-14.22.08-21.16l-.18-9.64c-.03-1.7,0-2.85.02-4.49l.21-16.71,35.74.22c3.98.02,7.62,1.98,10.49,4.47,4.75,4.12,5.81,12.48,4.57,19.02-1.58,8.3-8.12,13.48-16.53,13.53l-24.97.15v19.58s-8.88.05-8.88.05c-1.49-1.53-.56-3.32-.56-5.03ZM50.52,328.86l13.54-.36c2.1-.06,4.12-1.12,5.53-3.13,2.81-3.98,2.86-10.23-.83-13.83-1.52-1.48-4.47-2.22-6.55-2.22l-22.92-.11.09,19.51,11.14.15Z"/>
            <path class="aa" d="M29.87,352.31c-.07-.12-.35-.31-.35-.65v-20.01c0-.33.29-.53.44-.5l-.08,21.16Z"/>
            <path class="v" d="M64.06,328.5l-13.54.36c-.03-.22.16-.49.49-.49l13.05.13Z"/>
          </g>
        </g>
      </g>
    </g>
    <path class="p" d="M188.56,269.42c-5.3,4.17-12.51,4.15-17.76.8-5.42-3.46-6.05-9.31-3.32-14.67l43.07-84.64c3.29-6.46,7.94-11.52,12.99-16.52,7.76-7.68,17.71-12.15,28.33-14.57,1.96-.45,3.9-.88,5.93-.88h21.94c6.77-.01,12.92-2.48,17.15-7.83,3.18-4.03,4.96-8.56,5.3-13.9.73-11.41-7.74-22.12-19.76-22.16l-80.57-.23c-1.78,0-3.88-.8-4.97-2.08l-26.36-30.94c-2.23-2.61-1.9-7.1-.52-9.93,1.28-2.63,4.33-5.3,8.06-5.3h103.5c14.35,0,27.7,4.66,39.27,12.78,27.42,19.24,34.98,54.41,22.75,84.83-5.04,12.54-12.77,23.39-23.49,31.6s-22.77,12.89-36.18,12.99l-34.15.24c-9.36.07-16.96,6.84-20.19,15.41l31.05.1c1.35,0,2.66,1.71,2.85,2.7.24,1.28-.14,3.14-1.31,4.07l-56.23,44.45-17.37,13.66Z"/>
  </g>
</svg>